<svg data-v-fde0c5aa="" xmlns="http://www.w3.org/2000/svg" viewBox="0 0 300 300" class="font"><!----><defs data-v-fde0c5aa=""><linearGradient data-v-fde0c5aa="" gradientTransform="rotate(25)" id="4134b920-223a-491e-a963-d481ede59f43" x1="0%" y1="0%" x2="100%" y2="0%"><stop data-v-fde0c5aa="" offset="0%" stop-color="#0076DD" stop-opacity="1"></stop><stop data-v-fde0c5aa="" offset="100%" stop-color="#00CDE9" stop-opacity="1"></stop></linearGradient></defs><rect data-v-fde0c5aa="" fill="url(#4134b920-223a-491e-a963-d481ede59f43)" x="0" y="0" width="300px" height="300px" class="logo-background-square"></rect><defs data-v-fde0c5aa=""><!----></defs><g data-v-fde0c5aa="" id="29af0acf-5495-4701-b1d9-68da617da6eb" fill="#ffffff" transform="matrix(2.052621751946161,0,0,2.052621751946161,38.07053543571865,132.51166271256935)"><path d="M4.27 13.94C6.29 13.94 7.52 12.78 7.52 11.31C7.52 9.94 6.61 9.34 5.49 8.85L4.20 8.29C3.42 7.95 2.56 7.63 2.56 6.75C2.56 5.91 3.28 5.39 4.38 5.39C5.29 5.39 5.99 5.73 6.59 6.26L7.21 5.50C6.54 4.83 5.53 4.37 4.38 4.37C2.63 4.37 1.37 5.40 1.37 6.82C1.37 8.16 2.44 8.83 3.36 9.20L4.68 9.77C5.61 10.18 6.33 10.46 6.33 11.41C6.33 12.32 5.59 12.92 4.28 12.92C3.28 12.92 2.32 12.46 1.64 11.76L0.94 12.57C1.76 13.41 2.93 13.94 4.27 13.94ZM11.84 13.96C12.81 13.96 13.78 13.41 14.53 12.80L14.57 12.80L14.67 13.78L15.61 13.78L15.61 9.38C15.61 7.63 14.71 6.47 12.85 6.47C11.66 6.47 10.65 7.03 10.11 7.49L10.56 8.29C11.05 7.87 11.77 7.42 12.66 7.42C13.97 7.42 14.43 8.27 14.46 9.25C10.95 9.56 9.53 10.33 9.53 11.94C9.53 13.22 10.57 13.96 11.84 13.96ZM12.15 13.03C11.37 13.03 10.65 12.68 10.65 11.86C10.65 10.89 11.55 10.28 14.46 10.02L14.46 11.94C13.69 12.64 12.92 13.03 12.15 13.03ZM18.84 13.78L19.99 13.78L19.99 9.56C20.80 8.06 21.77 7.50 22.79 7.50C23.32 7.50 23.58 7.57 24.05 7.76L24.32 6.76C23.90 6.54 23.48 6.47 22.97 6.47C21.71 6.47 20.65 7.20 19.94 8.34L19.89 8.34L19.80 6.64L18.84 6.64ZM28.64 13.96C29.61 13.96 30.58 13.41 31.33 12.80L31.37 12.80L31.47 13.78L32.41 13.78L32.41 9.38C32.41 7.63 31.51 6.47 29.65 6.47C28.46 6.47 27.45 7.03 26.91 7.49L27.36 8.29C27.85 7.87 28.57 7.42 29.46 7.42C30.77 7.42 31.23 8.27 31.26 9.25C27.75 9.56 26.33 10.33 26.33 11.94C26.33 13.22 27.37 13.96 28.64 13.96ZM28.95 13.03C28.17 13.03 27.45 12.68 27.45 11.86C27.45 10.89 28.35 10.28 31.26 10.02L31.26 11.94C30.49 12.64 29.72 13.03 28.95 13.03ZM34.90 13.78L36.05 13.78L36.05 8.79C36.85 7.90 37.39 7.46 38.21 7.46C39.33 7.46 39.77 8.12 39.77 9.49L39.77 13.78L40.92 13.78L40.92 9.34C40.92 7.46 40.18 6.47 38.57 6.47C37.51 6.47 36.72 7.07 35.99 7.88L36.05 6.17L36.05 3.60L34.90 3.60ZM51.59 13.78L53.89 13.78C56.60 13.78 58.09 12.05 58.09 9.11C58.09 6.19 56.60 4.54 53.83 4.54L51.59 4.54ZM52.75 12.82L52.75 5.49L53.76 5.49C55.85 5.49 56.88 6.79 56.88 9.11C56.88 11.45 55.85 12.82 53.76 12.82ZM62.24 13.96C63.21 13.96 64.18 13.41 64.93 12.80L64.97 12.80L65.07 13.78L66.01 13.78L66.01 9.38C66.01 7.63 65.11 6.47 63.25 6.47C62.06 6.47 61.05 7.03 60.51 7.49L60.96 8.29C61.45 7.87 62.17 7.42 63.06 7.42C64.37 7.42 64.83 8.27 64.86 9.25C61.35 9.56 59.93 10.33 59.93 11.94C59.93 13.22 60.97 13.96 62.24 13.96ZM62.55 13.03C61.77 13.03 61.05 12.68 61.05 11.86C61.05 10.89 61.95 10.28 64.86 10.02L64.86 11.94C64.09 12.64 63.32 13.03 62.55 13.03ZM70.78 13.78L72.07 13.78L74.89 6.64L73.78 6.64L72.21 10.74C71.93 11.45 71.71 12.17 71.47 12.82L71.41 12.82C71.18 12.17 70.92 11.45 70.64 10.74L69.08 6.64L67.91 6.64ZM80.08 5.04C80.63 5.04 81.06 4.65 81.06 4.07C81.06 3.49 80.63 3.08 80.08 3.08C79.53 3.08 79.10 3.49 79.10 4.07C79.10 4.65 79.53 5.04 80.08 5.04ZM77.00 13.78L83.44 13.78L83.44 12.82L80.79 12.82L80.79 6.64L77.00 6.64L77.00 7.57L79.65 7.57L79.65 12.82L77.00 12.82ZM88.34 13.96C90.29 13.96 91.36 12.99 91.36 11.83C91.36 10.75 90.48 10.19 88.65 9.70C87.42 9.38 86.58 9.02 86.58 8.43C86.58 7.85 86.98 7.36 88.26 7.36C89.10 7.36 89.82 7.67 90.43 8.12L90.99 7.36C90.31 6.89 89.28 6.47 88.26 6.47C86.38 6.47 85.40 7.35 85.40 8.48C85.40 9.48 86.59 10.14 87.99 10.50C89.66 10.93 90.20 11.34 90.20 11.90C90.20 12.54 89.60 13.05 88.38 13.05C87.16 13.05 86.32 12.67 85.57 12.08L85.01 12.84C85.83 13.44 87.01 13.96 88.34 13.96ZM96.60 13.96C98.39 13.96 99.96 12.59 99.96 10.22C99.96 7.83 98.39 6.47 96.60 6.47C94.81 6.47 93.24 7.83 93.24 10.22C93.24 12.59 94.81 13.96 96.60 13.96ZM96.60 13.01C95.30 13.01 94.43 11.89 94.43 10.22C94.43 8.55 95.30 7.42 96.60 7.42C97.90 7.42 98.77 8.55 98.77 10.22C98.77 11.89 97.90 13.01 96.60 13.01ZM102.10 13.78L103.25 13.78L103.25 8.79C104.05 7.90 104.59 7.46 105.41 7.46C106.53 7.46 106.97 8.12 106.97 9.49L106.97 13.78L108.12 13.78L108.12 9.34C108.12 7.46 107.38 6.47 105.77 6.47C104.71 6.47 103.92 7.07 103.21 7.88L103.15 7.88L103.05 6.64L102.10 6.64Z"></path></g><!----><!----></svg>